<?xml version="1.0" standalone="no"?>
<!DOCTYPE svg PUBLIC "-//W3C//DTD SVG 20010904//EN"
 "http://www.w3.org/TR/2001/REC-SVG-20010904/DTD/svg10.dtd">
<svg version="1.0" xmlns="http://www.w3.org/2000/svg"
 width="40.000000pt" height="40.000000pt" viewBox="0 0 80.000000 80.000000"
 preserveAspectRatio="xMidYMid meet">

<g transform="translate(0.000000,80.000000) scale(0.100000,-0.100000)"
fill="#CA4000" stroke="none">
<path d="M392 753 c-10 -15 -25 -45 -31 -66 -9 -25 -26 -47 -56 -67 -24 -17
-46 -39 -50 -50 -3 -10 -16 -22 -28 -26 -39 -11 -57 -35 -57 -74 0 -20 5 -41
12 -48 8 -8 8 -15 1 -24 -12 -14 -12 -72 0 -84 4 -4 7 6 7 23 l0 31 58 -24
c31 -13 64 -24 72 -24 9 0 21 -5 27 -11 8 -8 30 -6 82 10 39 12 71 23 71 24 0
1 -37 2 -83 3 -45 0 -66 -1 -47 -3 52 -6 62 -23 13 -23 -23 0 -45 5 -48 10 -3
6 -21 10 -38 11 l-32 1 35 9 c19 5 76 7 126 5 77 -4 96 -1 123 15 38 23 41 23
41 4 0 -8 -10 -19 -21 -26 -17 -8 -20 -8 -14 1 5 8 3 11 -6 8 -8 -3 -13 -10
-12 -16 2 -7 -4 -9 -14 -5 -11 4 -14 3 -9 -5 5 -8 2 -10 -9 -6 -10 4 -15 2
-13 -6 2 -7 -4 -15 -12 -17 -13 -4 -13 -3 0 6 20 14 17 14 -59 -7 l-63 -18 83
-23 c46 -12 94 -29 105 -36 23 -15 34 -11 34 11 0 8 -7 11 -17 8 -17 -5 -17
-5 -1 6 10 6 15 17 11 27 -4 10 -2 14 4 10 12 -8 14 -107 2 -107 -4 0 -6 -9
-4 -20 2 -11 0 -18 -4 -15 -5 3 -25 -2 -44 -10 -53 -22 -155 -29 -222 -15 -70
14 -118 37 -110 50 4 6 1 10 -4 10 -6 0 -11 4 -11 9 0 5 17 0 37 -10 21 -10
44 -19 53 -18 10 0 9 3 -5 9 -29 12 -7 12 59 -1 63 -13 168 0 216 26 21 12 23
14 8 20 -9 4 -23 3 -30 -1 -7 -4 -9 -3 -5 1 9 10 -142 57 -161 50 -8 -3 -10 0
-6 7 5 8 -2 9 -26 5 -18 -4 -53 -7 -79 -7 -37 -1 -42 -3 -28 -11 10 -6 30 -8
45 -5 15 3 54 2 87 -3 l60 -7 -75 -8 c-60 -6 -84 -5 -114 8 -48 20 -43 41 10
41 95 1 120 5 102 16 -12 7 -31 6 -58 -1 -28 -8 -46 -8 -60 0 -30 16 -39 -13
-36 -115 2 -78 5 -90 25 -106 36 -29 98 -42 196 -42 71 0 101 5 142 23 29 12
54 30 57 39 9 30 4 301 -5 307 -5 3 -2 12 6 20 8 9 15 24 15 35 0 18 -2 19
-15 6 -17 -18 -85 -43 -138 -52 -24 -4 -35 -10 -31 -17 5 -8 -18 -9 -79 -6
-107 7 -161 30 -165 71 -4 29 21 67 42 67 6 0 0 -9 -14 -20 l-25 -20 27 -24
c37 -33 125 -50 214 -42 111 9 165 38 144 77 -14 24 5 26 19 2 6 -10 11 -13
11 -8 0 6 -5 16 -11 22 -11 11 44 66 88 86 19 8 23 17 21 41 -2 26 -8 32 -31
34 -23 3 -30 -2 -42 -31 -14 -33 -82 -97 -103 -97 -6 0 -13 9 -17 20 -3 10
-24 33 -45 50 -47 37 -69 94 -50 129 17 34 5 36 -18 4z m16 -146 c15 -36 15
-60 0 -51 -7 5 -8 3 -4 -5 5 -8 0 -14 -13 -18 -29 -7 -27 -23 3 -23 13 0 30
10 39 23 13 18 16 19 16 5 1 -9 -10 -26 -24 -37 l-26 -20 23 -4 c13 -2 -3 -5
-35 -6 -45 -1 -66 4 -88 20 -20 14 -27 16 -23 6 7 -18 42 -34 104 -47 40 -8
35 -8 -35 -6 -85 3 -125 17 -125 42 0 14 3 13 18 -3 9 -10 14 -14 10 -9 -23
30 16 106 73 142 28 17 42 35 51 66 l13 43 6 -45 c3 -25 11 -58 17 -73z m282
43 c0 -11 -8 -24 -17 -27 -10 -4 -46 -31 -81 -61 -34 -30 -65 -52 -68 -50 -3
3 20 29 50 58 31 29 56 58 56 64 0 18 22 36 42 36 11 0 18 -7 18 -20z m-224
-136 c-9 -8 -11 -9 -6 -2 6 7 11 21 11 33 1 18 2 18 6 1 3 -10 -2 -25 -11 -32z
m54 -39 c0 -2 -10 -9 -22 -15 -22 -11 -22 -10 -4 4 21 17 26 19 26 11z m-314
-81 c-4 -12 -2 -15 9 -11 8 4 29 0 46 -7 25 -10 28 -14 14 -20 -26 -9 -42 -7
-25 4 12 8 10 10 -10 10 -35 0 -60 3 -60 7 0 5 24 32 29 33 2 0 0 -7 -3 -16z
m384 -64 c0 -18 -76 -61 -95 -54 -13 5 -16 4 -11 -4 9 -15 10 -15 -39 3 -43
15 -37 17 50 19 34 1 50 5 50 14 0 12 22 32 38 32 4 0 7 -4 7 -10z m-392 -101
c-2 -7 17 -12 50 -14 29 -1 55 -5 59 -8 3 -4 11 -1 17 7 12 15 109 29 100 15
-3 -5 -25 -9 -50 -9 -28 0 -43 -4 -39 -10 3 -6 18 -7 32 -4 19 5 24 4 18 -6
-5 -8 -22 -11 -53 -7 -25 3 -58 0 -74 -5 -22 -8 -34 -6 -53 6 -25 16 -34 46
-15 46 6 0 9 -5 8 -11z m285 -34 c-11 -8 -40 -17 -64 -20 l-44 -5 48 13 c26 8
50 17 54 20 3 4 11 7 17 7 6 0 1 -7 -11 -15z m-238 -110 c19 -8 46 -15 60 -15
14 0 25 -4 25 -10 0 -13 -7 -13 -67 5 -54 16 -90 46 -77 66 5 9 10 6 15 -10 5
-12 24 -28 44 -36z m27 21 c21 -4 40 -12 44 -18 13 -21 -69 0 -90 24 -12 12
-14 17 -6 11 8 -6 32 -13 52 -17z m283 -16 c-3 -5 -12 -10 -18 -10 -7 0 -6 4
3 10 19 12 23 12 15 0z m-72 -27 c-7 -2 -19 -2 -25 0 -7 3 -2 5 12 5 14 0 19
-2 13 -5z m-80 -10 c-13 -2 -33 -2 -45 0 -13 2 -3 4 22 4 25 0 35 -2 23 -4z"/>
<path d="M300 564 c-11 -13 -10 -19 10 -37 13 -12 18 -14 11 -5 -7 10 -11 27
-8 38 6 24 4 25 -13 4z"/>
<path d="M655 649 c-4 -6 -5 -13 -2 -16 7 -7 27 6 27 18 0 12 -17 12 -25 -2z"/>
<path d="M560 320 c-9 -6 -10 -10 -3 -10 6 0 15 5 18 10 8 12 4 12 -15 0z"/>
<path d="M220 200 c8 -5 20 -10 25 -10 6 0 3 5 -5 10 -8 5 -19 10 -25 10 -5 0
-3 -5 5 -10z"/>
<path d="M203 329 c-1 -11 2 -19 7 -19 5 0 17 -3 27 -6 15 -5 16 -4 3 6 -12 9
-9 10 15 5 37 -8 31 -2 -15 18 -34 13 -36 13 -37 -4z"/>
<path d="M554 190 c-21 -21 -138 -42 -204 -37 -57 5 -60 4 -25 -5 36 -9 110
-6 175 7 14 2 7 -2 -15 -9 -32 -12 -35 -15 -15 -15 27 -1 115 37 91 38 -11 1
-10 5 5 16 10 8 14 15 9 15 -6 0 -15 -4 -21 -10z"/>
<path d="M221 156 c15 -9 46 -18 70 -21 l44 -5 -45 13 c-25 7 -56 17 -70 21
l-25 7 26 -15z"/>
<path d="M363 123 c15 -2 37 -2 50 0 12 2 0 4 -28 4 -27 0 -38 -2 -22 -4z"/>
</g>
</svg>
